<svg version="1.1" id="Layer_1" xmlns="http://www.w3.org/2000/svg" xmlns:xlink="http://www.w3.org/1999/xlink" x="0px" y="0px"
	 width="100%" viewBox="0 0 310 163" enable-background="new 0 0 310 163" xml:space="preserve">
<path fill="#C2DEEF" opacity="1.000000" stroke="none" 
	d="
M185.000000,164.000000 
	C123.333344,164.000000 62.166679,164.000000 1.000016,164.000000 
	C1.000011,109.666679 1.000011,55.333363 1.000005,1.000031 
	C104.333305,1.000021 207.666611,1.000021 310.999939,1.000010 
	C310.999939,55.333302 310.999939,109.666603 310.999969,163.999954 
	C269.166656,164.000000 227.333328,164.000000 185.000000,164.000000 
M86.335327,30.787533 
	C85.896019,30.846014 85.456718,30.904495 84.642899,30.747372 
	C84.089478,30.819284 83.536057,30.891197 82.335243,30.787607 
	C81.895882,30.846170 81.456512,30.904732 80.643013,30.748245 
	C80.097130,30.839392 79.551254,30.930538 78.228546,31.008631 
	C77.417015,32.998440 76.605484,34.988251 75.732552,37.614124 
	C75.814384,37.810783 75.896217,38.007446 75.835480,38.570782 
	C75.670174,38.790112 75.453667,38.930458 74.570068,39.578560 
	C74.388329,40.375950 74.049332,41.173069 74.047928,41.970776 
	C74.015503,60.420582 74.000267,78.870514 74.060638,97.320168 
	C74.064697,98.561241 74.691177,99.800278 75.261879,101.563599 
	C75.332390,101.741158 75.402901,101.918724 75.261513,102.682030 
	C75.190872,103.091820 75.120232,103.501602 74.510521,104.570290 
	C74.345627,112.868446 74.096550,121.166061 74.042679,129.464935 
	C74.000160,136.015747 76.063087,137.969589 82.792458,137.971848 
	C131.575012,137.988220 180.357559,137.987991 229.140106,137.972351 
	C236.057922,137.970139 237.972397,136.025650 237.976959,129.032639 
	C237.995438,100.728783 238.005005,72.424850 237.934662,44.121159 
	C237.930420,42.410461 237.204254,40.701557 236.450409,38.840553 
	C236.211472,38.693104 236.067978,38.481060 236.261261,37.616711 
	C236.241974,37.405804 236.222687,37.194897 236.372513,36.136822 
	C236.787796,30.994364 233.484711,30.692236 229.607056,30.696308 
	C185.728317,30.742378 141.849533,30.720758 97.970757,30.735559 
	C94.985573,30.736567 92.000427,30.884254 88.641090,30.747898 
	C88.088257,30.819620 87.535431,30.891342 86.335327,30.787533 
z"/>
<path fill="#FEFEFE" opacity="1.000000" stroke="none" 
	d="
M75.185951,38.991817 
	C75.453667,38.930458 75.670174,38.790112 76.376358,38.362850 
	C129.951462,38.171421 182.985687,38.187923 236.019928,38.204426 
	C236.067978,38.481060 236.211472,38.693104 236.676025,39.385040 
	C236.914276,69.033989 236.939774,98.138466 236.928879,127.242912 
	C236.926666,133.160797 235.914215,134.124893 229.880600,134.140396 
	C188.974579,134.245514 148.068512,134.341797 107.162430,134.367874 
	C106.441551,134.368332 105.720100,133.461777 105.213173,132.718658 
	C109.410439,125.309082 113.393448,118.159294 117.973022,109.938652 
	C109.024963,105.355537 100.327171,100.900612 91.424095,96.340538 
	C89.274239,100.440781 87.424301,103.969009 85.330208,107.962891 
	C81.665237,105.781563 78.569328,103.938927 75.473419,102.096291 
	C75.402901,101.918724 75.332390,101.741158 75.156174,100.828751 
	C75.095627,79.726547 75.140793,59.359180 75.185951,38.991817 
M157.909790,89.104446 
	C158.954391,88.505264 160.893448,87.927605 160.908463,87.303673 
	C161.110168,78.919128 161.043594,70.528130 161.043594,62.248512 
	C157.330719,62.248512 154.205399,62.248512 150.395233,62.558716 
	C149.298050,67.669296 153.555161,65.537712 156.050140,66.466507 
	C156.050140,70.811577 155.930466,75.232819 156.090881,79.643875 
	C156.203629,82.744560 156.697601,85.831390 157.909790,89.104446 
M186.289047,64.647293 
	C186.214096,64.092934 186.139145,63.538578 185.729324,62.163879 
	C180.846695,62.197170 175.964081,62.230461 170.411560,62.678570 
	C169.974655,67.267693 169.537750,71.856812 169.043640,77.046700 
	C172.402115,77.046700 175.609497,76.601753 178.595352,77.222488 
	C180.245422,77.565529 181.524155,79.694641 182.970291,81.018616 
	C181.588333,82.374504 180.376831,84.559280 178.783432,84.886955 
	C176.539185,85.348480 174.009933,84.180847 171.606308,84.199219 
	C170.088318,84.210823 168.577164,85.114906 167.062943,85.618675 
	C167.192886,86.444847 167.322830,87.271019 167.452774,88.097191 
	C171.901794,88.470123 176.379517,89.337860 180.792053,89.081947 
	C185.554749,88.805717 188.477905,84.592415 188.001892,80.048164 
	C187.598877,76.200981 183.984802,72.880013 180.285309,72.957397 
	C173.346680,73.102531 173.341919,73.096306 175.926224,66.074112 
	C179.304550,65.720825 182.682877,65.367546 186.289047,64.647293 
M136.034119,64.300125 
	C132.118423,70.376732 125.984795,75.066566 123.725891,83.038452 
	C129.305893,83.038452 134.079773,83.038452 139.064102,83.038452 
	C139.179337,85.139137 139.276123,86.903572 139.379074,88.780190 
	C144.864944,90.311066 143.803650,86.034286 144.173553,83.903992 
	C146.168640,82.898811 147.707275,82.123611 149.245895,81.348412 
	C149.139862,81.000603 149.033829,80.652786 148.927780,80.304977 
	C147.411667,80.083832 145.895538,79.862686 144.263382,79.624619 
	C144.149155,77.491341 144.045715,75.559624 143.925766,73.319740 
	C142.373413,73.410538 141.145432,73.482361 139.818680,73.559959 
	C139.602631,75.427467 139.416840,77.033447 139.220108,78.733841 
	C136.486481,78.733841 133.919800,78.733841 130.638763,78.733841 
	C134.875427,72.995346 138.777023,67.710670 142.678619,62.425991 
	C142.415253,62.058392 142.151871,61.690792 141.888504,61.323189 
	C140.102768,62.129055 138.317047,62.934917 136.034119,64.300125 
M163.400192,103.989021 
	C162.848419,104.050148 162.296646,104.111275 161.744888,104.172401 
	C161.760040,104.578278 161.775177,104.984154 161.790329,105.390038 
	C162.475357,105.065079 163.160385,104.740120 163.400192,103.989021 
z"/>
<path fill="#F2F6FC" opacity="1.000000" stroke="none" 
	d="
M75.367462,102.389160 
	C78.569328,103.938927 81.665237,105.781563 85.330208,107.962891 
	C87.424301,103.969009 89.274239,100.440781 91.424095,96.340538 
	C100.327171,100.900612 109.024963,105.355537 117.973022,109.938652 
	C113.393448,118.159294 109.410439,125.309082 104.832771,132.901550 
	C96.678314,133.604111 89.115166,133.793030 81.559967,134.150146 
	C76.942078,134.368408 74.887115,132.455841 74.990334,127.737206 
	C75.163986,119.798637 75.045296,111.853668 75.049583,103.911392 
	C75.120232,103.501602 75.190872,103.091820 75.367462,102.389160 
z"/>
<path fill="#0158FC" opacity="1.000000" stroke="none" 
	d="
M89.015274,30.963726 
	C92.000427,30.884254 94.985573,30.736567 97.970757,30.735559 
	C141.849533,30.720758 185.728317,30.742378 229.607056,30.696308 
	C233.484711,30.692236 236.787796,30.994364 235.803619,36.564842 
	C186.731125,36.992867 138.227524,36.992867 89.872887,36.992867 
	C89.519974,34.511833 89.267624,32.737782 89.015274,30.963726 
z"/>
<path fill="#AEC9D8" opacity="1.000000" stroke="none" 
	d="
M74.780052,104.240845 
	C75.045296,111.853668 75.163986,119.798637 74.990334,127.737206 
	C74.887115,132.455841 76.942078,134.368408 81.559967,134.150146 
	C89.115166,133.793030 96.678314,133.604111 104.618515,133.161346 
	C105.720100,133.461777 106.441551,134.368332 107.162430,134.367874 
	C148.068512,134.341797 188.974579,134.245514 229.880600,134.140396 
	C235.914215,134.124893 236.926666,133.160797 236.928879,127.242912 
	C236.939774,98.138466 236.914276,69.033989 236.857819,39.460670 
	C237.204254,40.701557 237.930420,42.410461 237.934662,44.121159 
	C238.005005,72.424850 237.995438,100.728783 237.976959,129.032639 
	C237.972397,136.025650 236.057922,137.970139 229.140106,137.972351 
	C180.357559,137.987991 131.575012,137.988220 82.792458,137.971848 
	C76.063087,137.969589 74.000160,136.015747 74.042679,129.464935 
	C74.096550,121.166061 74.345627,112.868446 74.780052,104.240845 
z"/>
<path fill="#044FFC" opacity="1.000000" stroke="none" 
	d="
M88.828186,30.855812 
	C89.267624,32.737782 89.519974,34.511833 89.872887,36.992867 
	C138.227524,36.992867 186.731125,36.992867 235.719055,36.988426 
	C236.222687,37.194897 236.241974,37.405804 236.140594,37.910568 
	C182.985687,38.187923 129.951462,38.171421 76.447639,38.179512 
	C75.896217,38.007446 75.814384,37.810783 76.135345,37.289917 
	C80.143188,36.139381 79.370613,33.495998 79.005371,31.021685 
	C79.551254,30.930538 80.097130,30.839392 80.875397,31.138401 
	C81.420288,31.828911 81.732788,32.129269 82.045288,32.429626 
	C82.357742,31.940790 82.670189,31.451950 82.982635,30.963108 
	C83.536057,30.891197 84.089478,30.819284 84.875420,31.137798 
	C85.420380,31.828608 85.732819,32.128994 86.045265,32.429379 
	C86.357704,31.940605 86.670151,31.451834 86.982597,30.963062 
	C87.535431,30.891342 88.088257,30.819620 88.828186,30.855812 
z"/>
<path fill="#AEC9D8" opacity="1.000000" stroke="none" 
	d="
M74.878006,39.285187 
	C75.140793,59.359180 75.095627,79.726547 75.039322,100.567085 
	C74.691177,99.800278 74.064697,98.561241 74.060638,97.320168 
	C74.000267,78.870514 74.015503,60.420582 74.047928,41.970776 
	C74.049332,41.173069 74.388329,40.375950 74.878006,39.285187 
z"/>
<path fill="#0158FC" opacity="1.000000" stroke="none" 
	d="
M78.616959,31.015158 
	C79.370613,33.495998 80.143188,36.139381 76.166046,36.971882 
	C76.605484,34.988251 77.417015,32.998440 78.616959,31.015158 
z"/>
<path fill="#0158FC" opacity="1.000000" stroke="none" 
	d="
M86.658966,30.875298 
	C86.670151,31.451834 86.357704,31.940605 86.045265,32.429379 
	C85.732819,32.128994 85.420380,31.828608 85.062675,31.245600 
	C85.456718,30.904495 85.896019,30.846014 86.658966,30.875298 
z"/>
<path fill="#0158FC" opacity="1.000000" stroke="none" 
	d="
M82.658943,30.875359 
	C82.670189,31.451950 82.357742,31.940790 82.045288,32.429626 
	C81.732788,32.129269 81.420288,31.828911 81.062469,31.245924 
	C81.456512,30.904732 81.895882,30.846170 82.658943,30.875359 
z"/>
<path fill="#1A2A43" opacity="1.000000" stroke="none" 
	d="
M175.016464,66.060425 
	C173.341919,73.096306 173.346680,73.102531 180.285309,72.957397 
	C183.984802,72.880013 187.598877,76.200981 188.001892,80.048164 
	C188.477905,84.592415 185.554749,88.805717 180.792053,89.081947 
	C176.379517,89.337860 171.901794,88.470123 167.452774,88.097191 
	C167.322830,87.271019 167.192886,86.444847 167.062943,85.618675 
	C168.577164,85.114906 170.088318,84.210823 171.606308,84.199219 
	C174.009933,84.180847 176.539185,85.348480 178.783432,84.886955 
	C180.376831,84.559280 181.588333,82.374504 182.970291,81.018616 
	C181.524155,79.694641 180.245422,77.565529 178.595352,77.222488 
	C175.609497,76.601753 172.402115,77.046700 169.043640,77.046700 
	C169.537750,71.856812 169.974655,67.267693 171.079620,62.702240 
	C176.519836,62.812012 181.292023,62.898117 186.064194,62.984222 
	C186.139145,63.538578 186.214096,64.092934 185.718506,64.809723 
	C181.770813,65.334908 178.393631,65.697662 175.016464,66.060425 
z"/>
<path fill="#192943" opacity="1.000000" stroke="none" 
	d="
M136.282715,64.020454 
	C138.317047,62.934917 140.102768,62.129055 141.888504,61.323189 
	C142.151871,61.690792 142.415253,62.058392 142.678619,62.425991 
	C138.777023,67.710670 134.875427,72.995346 130.638763,78.733841 
	C133.919800,78.733841 136.486481,78.733841 139.220108,78.733841 
	C139.416840,77.033447 139.602631,75.427467 139.818680,73.559959 
	C141.145432,73.482361 142.373413,73.410538 143.925766,73.319740 
	C144.045715,75.559624 144.149155,77.491341 144.263382,79.624619 
	C145.895538,79.862686 147.411667,80.083832 148.927780,80.304977 
	C149.033829,80.652786 149.139862,81.000603 149.245895,81.348412 
	C147.707275,82.123611 146.168640,82.898811 144.173553,83.903992 
	C143.803650,86.034286 144.864944,90.311066 139.379074,88.780190 
	C139.276123,86.903572 139.179337,85.139137 139.064102,83.038452 
	C134.079773,83.038452 129.305893,83.038452 123.725891,83.038452 
	C125.984795,75.066566 132.118423,70.376732 136.282715,64.020454 
z"/>
<path fill="#1B2B44" opacity="1.000000" stroke="none" 
	d="
M157.021332,88.924408 
	C156.697601,85.831390 156.203629,82.744560 156.090881,79.643875 
	C155.930466,75.232819 156.050140,70.811577 156.050140,66.466507 
	C153.555161,65.537712 149.298050,67.669296 151.056259,62.638420 
	C152.694183,62.819611 153.702927,63.130226 154.642563,62.987110 
	C159.200073,62.292938 160.329620,64.434639 160.057724,68.623489 
	C159.738113,73.546791 160.250824,78.528755 159.846909,83.439590 
	C159.691223,85.332520 158.008392,87.099854 157.021332,88.924408 
z"/>
<path fill="#000025" opacity="1.000000" stroke="none" 
	d="
M157.465576,89.014427 
	C158.008392,87.099854 159.691223,85.332520 159.846909,83.439590 
	C160.250824,78.528755 159.738113,73.546791 160.057724,68.623489 
	C160.329620,64.434639 159.200073,62.292938 154.642563,62.987110 
	C153.702927,63.130226 152.694183,62.819611 151.398682,62.483322 
	C154.205399,62.248512 157.330719,62.248512 161.043594,62.248512 
	C161.043594,70.528130 161.110168,78.919128 160.908463,87.303673 
	C160.893448,87.927605 158.954391,88.505264 157.465576,89.014427 
z"/>
<path fill="#000124" opacity="1.000000" stroke="none" 
	d="
M185.896759,62.574051 
	C181.292023,62.898117 176.519836,62.812012 171.414551,62.494827 
	C175.964081,62.230461 180.846695,62.197170 185.896759,62.574051 
z"/>
<path fill="#000124" opacity="1.000000" stroke="none" 
	d="
M175.471344,66.067261 
	C178.393631,65.697662 181.770813,65.334908 185.604584,64.993210 
	C182.682877,65.367546 179.304550,65.720825 175.471344,66.067261 
z"/>
<path fill="#777D88" opacity="1.000000" stroke="none" 
	d="
M163.622803,104.202087 
	C163.160385,104.740120 162.475357,105.065079 161.790329,105.390038 
	C161.775177,104.984154 161.760040,104.578278 161.744888,104.172401 
	C162.296646,104.111275 162.848419,104.050148 163.622803,104.202087 
z"/>
</svg>